<?xml version="1.0" encoding="UTF-8" standalone="no"?>
<!DOCTYPE svg PUBLIC "-//W3C//DTD SVG 1.1//EN"
 "http://www.w3.org/Graphics/SVG/1.1/DTD/svg11.dtd">
<!-- Generated by graphviz version 2.28.0 (20120821.2217)
 -->
<!-- Title: G Pages: 1 -->
<svg width="470pt" height="1536pt"
 viewBox="0.00 0.00 470.00 1536.00" xmlns="http://www.w3.org/2000/svg" xmlns:xlink="http://www.w3.org/1999/xlink">
<g id="graph1" class="graph" transform="scale(1 1) rotate(0) translate(4 1532)">
<title>G</title>
<polygon fill="white" stroke="white" points="-4,5 -4,-1532 467,-1532 467,5 -4,5"/>
<g id="graph2" class="cluster"><title>cluster_global</title>
<polyline fill="none" stroke="gray" points="20,-98 442,-98 "/>
<path fill="none" stroke="gray" d="M442,-98C448,-98 454,-104 454,-110"/>
<polyline fill="none" stroke="gray" points="454,-110 454,-1508 "/>
<path fill="none" stroke="gray" d="M454,-1508C454,-1514 448,-1520 442,-1520"/>
<polyline fill="none" stroke="gray" points="442,-1520 20,-1520 "/>
<path fill="none" stroke="gray" d="M20,-1520C14,-1520 8,-1514 8,-1508"/>
<polyline fill="none" stroke="gray" points="8,-1508 8,-110 "/>
<path fill="none" stroke="gray" d="M8,-110C8,-104 14,-98 20,-98"/>
<text text-anchor="middle" x="231" y="-1507.2" font-family="Times,serif" font-size="11.00" fill="gray">global</text>
</g>
<!-- \\MpmInitialSchema -->
<g id="node2" class="node"><title>\\MpmInitialSchema</title>
<a xlink:href="db.schema.html" xlink:title="MpmInitialSchema" target="_parent">
<polygon fill="none" stroke="black" points="398.5,-1492 273.5,-1492 273.5,-1456 398.5,-1456 398.5,-1492"/>
<text text-anchor="middle" x="336" y="-1471.2" font-family="Courier,monospace" font-size="11.00">MpmInitialSchema</text>
</a>
</g>
<!-- \\MpmSchema -->
<g id="node9" class="node"><title>\\MpmSchema</title>
<a xlink:href="lib.classes.schema.html" xlink:title="MpmSchema" target="_parent">
<polygon fill="none" stroke="black" points="123.5,-1465 46.5,-1465 46.5,-1429 123.5,-1429 123.5,-1465"/>
<text text-anchor="middle" x="85" y="-1444.2" font-family="Courier,monospace" font-size="11.00">MpmSchema</text>
</a>
</g>
<!-- \\MpmInitialSchema&#45;&gt;\\MpmSchema -->
<g id="edge3" class="edge"><title>\\MpmInitialSchema&#45;&gt;\\MpmSchema</title>
<path fill="none" stroke="black" d="M273.449,-1467.33C230.26,-1462.64 173.355,-1456.47 133.619,-1452.16"/>
<polygon fill="none" stroke="black" points="133.972,-1448.68 123.653,-1451.08 133.217,-1455.64 133.972,-1448.68"/>
</g>
<!-- \\MpmTestData -->
<g id="node3" class="node"><title>\\MpmTestData</title>
<a xlink:href="db.test_data.html" xlink:title="MpmTestData" target="_parent">
<polygon fill="none" stroke="black" points="381.5,-1438 290.5,-1438 290.5,-1402 381.5,-1402 381.5,-1438"/>
<text text-anchor="middle" x="336" y="-1417.2" font-family="Courier,monospace" font-size="11.00">MpmTestData</text>
</a>
</g>
<!-- \\MpmTestData&#45;&gt;\\MpmSchema -->
<g id="edge5" class="edge"><title>\\MpmTestData&#45;&gt;\\MpmSchema</title>
<path fill="none" stroke="black" d="M290.484,-1424.83C246.36,-1429.61 178.992,-1436.92 133.767,-1441.82"/>
<polygon fill="none" stroke="black" points="133.188,-1438.36 123.623,-1442.92 133.942,-1445.32 133.188,-1438.36"/>
</g>
<!-- \\MpmCommandLineWriter -->
<g id="node4" class="node"><title>\\MpmCommandLineWriter</title>
<a xlink:href="lib.classes.command_line_writer.html" xlink:title="MpmCommandLineWriter" target="_parent">
<polygon fill="none" stroke="black" points="412,-1384 260,-1384 260,-1348 412,-1348 412,-1384"/>
<text text-anchor="middle" x="336" y="-1363.2" font-family="Courier,monospace" font-size="11.00">MpmCommandLineWriter</text>
</a>
</g>
<!-- \\MpmControllerFactory -->
<g id="node5" class="node"><title>\\MpmControllerFactory</title>
<a xlink:href="lib.classes.controller_factory.html" xlink:title="MpmControllerFactory" target="_parent">
<polygon fill="none" stroke="black" points="412,-1330 260,-1330 260,-1294 412,-1294 412,-1330"/>
<text text-anchor="middle" x="336" y="-1309.2" font-family="Courier,monospace" font-size="11.00">MpmControllerFactory</text>
</a>
</g>
<!-- \\ExceptionalMysqli -->
<g id="node6" class="node"><title>\\ExceptionalMysqli</title>
<a xlink:href="lib.classes.exceptional_mysqli.html" xlink:title="ExceptionalMysqli" target="_parent">
<polygon fill="none" stroke="black" points="401.5,-628 270.5,-628 270.5,-592 401.5,-592 401.5,-628"/>
<text text-anchor="middle" x="336" y="-607.2" font-family="Courier,monospace" font-size="11.00">ExceptionalMysqli</text>
</a>
</g>
<!-- \\mysqli -->
<g id="node34" class="node"><title>\\mysqli</title>
<ellipse fill="none" stroke="black" cx="85" cy="-72" rx="38.1938" ry="18"/>
<text text-anchor="middle" x="85" y="-68.3" font-family="Times,serif" font-size="14.00" fill="gray">\mysqli</text>
</g>
<!-- \\ExceptionalMysqli&#45;&gt;\\mysqli -->
<g id="edge7" class="edge"><title>\\ExceptionalMysqli&#45;&gt;\\mysqli</title>
<path fill="none" stroke="black" d="M270.399,-606.723C253.827,-602.781 237.466,-595.631 226,-583 78.3486,-420.344 295.862,-261.729 154,-94 148.236,-87.1855 140.343,-82.4636 131.972,-79.1963"/>
<polygon fill="none" stroke="black" points="132.998,-75.8496 122.406,-76.0915 130.837,-82.5077 132.998,-75.8496"/>
</g>
<!-- \\MpmMigration -->
<g id="node7" class="node"><title>\\MpmMigration</title>
<a xlink:href="lib.classes.migration.html" xlink:title="MpmMigration" target="_parent">
<polygon fill="none" stroke="black" points="385,-1222 287,-1222 287,-1186 385,-1186 385,-1222"/>
<text text-anchor="middle" x="336" y="-1201.2" font-family="Courier,monospace" font-size="11.00">MpmMigration</text>
</a>
</g>
<!-- \\MpmMysqliMigration -->
<g id="node8" class="node"><title>\\MpmMysqliMigration</title>
<a xlink:href="lib.classes.mysqli_migration.html" xlink:title="MpmMysqliMigration" target="_parent">
<polygon fill="none" stroke="black" points="154,-682 16,-682 16,-646 154,-646 154,-682"/>
<text text-anchor="middle" x="85" y="-661.2" font-family="Courier,monospace" font-size="11.00">MpmMysqliMigration</text>
</a>
</g>
<!-- \\MpmAddController -->
<g id="node10" class="node"><title>\\MpmAddController</title>
<a xlink:href="lib.controllers.add_controller.html" xlink:title="MpmAddController" target="_parent">
<polygon fill="none" stroke="black" points="398.5,-898 273.5,-898 273.5,-862 398.5,-862 398.5,-898"/>
<text text-anchor="middle" x="336" y="-877.2" font-family="Courier,monospace" font-size="11.00">MpmAddController</text>
</a>
</g>
<!-- \\MpmController -->
<g id="node12" class="node"><title>\\MpmController</title>
<a xlink:href="lib.controllers.controller.html" xlink:title="MpmController" target="_parent">
<polygon fill="none" stroke="black" points="137,-979 33,-979 33,-943 137,-943 137,-979"/>
<text text-anchor="middle" x="85" y="-958.2" font-family="Courier,monospace" font-size="11.00">MpmController</text>
</a>
</g>
<!-- \\MpmAddController&#45;&gt;\\MpmController -->
<g id="edge9" class="edge"><title>\\MpmAddController&#45;&gt;\\MpmController</title>
<path fill="none" stroke="black" d="M273.23,-893.872C257.706,-897.749 241.153,-902.221 226,-907 196.46,-916.315 164.16,-928.626 138.036,-939.14"/>
<polygon fill="none" stroke="black" points="136.658,-935.922 128.707,-942.924 139.289,-942.409 136.658,-935.922"/>
</g>
<!-- \\MpmBuildController -->
<g id="node11" class="node"><title>\\MpmBuildController</title>
<a xlink:href="lib.controllers.build_controller.html" xlink:title="MpmBuildController" target="_parent">
<polygon fill="none" stroke="black" points="405,-844 267,-844 267,-808 405,-808 405,-844"/>
<text text-anchor="middle" x="336" y="-823.2" font-family="Courier,monospace" font-size="11.00">MpmBuildController</text>
</a>
</g>
<!-- \\MpmBuildController&#45;&gt;\\MpmController -->
<g id="edge11" class="edge"><title>\\MpmBuildController&#45;&gt;\\MpmController</title>
<path fill="none" stroke="black" d="M266.893,-838.255C252.988,-842.022 238.727,-846.853 226,-853 181.721,-874.386 138.04,-911.295 111.545,-935.926"/>
<polygon fill="none" stroke="black" points="109.093,-933.429 104.218,-942.835 113.895,-938.522 109.093,-933.429"/>
</g>
<!-- \\MpmDownController -->
<g id="node13" class="node"><title>\\MpmDownController</title>
<a xlink:href="lib.controllers.down_controller.html" xlink:title="MpmDownController" target="_parent">
<polygon fill="none" stroke="black" points="401.5,-790 270.5,-790 270.5,-754 401.5,-754 401.5,-790"/>
<text text-anchor="middle" x="336" y="-769.2" font-family="Courier,monospace" font-size="11.00">MpmDownController</text>
</a>
</g>
<!-- \\MpmDownController&#45;&gt;\\MpmController -->
<g id="edge13" class="edge"><title>\\MpmDownController&#45;&gt;\\MpmController</title>
<path fill="none" stroke="black" d="M270.414,-781.095C255.117,-785.075 239.376,-790.791 226,-799 169.778,-833.506 124.228,-898.019 101.571,-934.356"/>
<polygon fill="none" stroke="black" points="98.5452,-932.595 96.3112,-942.951 104.516,-936.248 98.5452,-932.595"/>
</g>
<!-- \\MpmHelpController -->
<g id="node14" class="node"><title>\\MpmHelpController</title>
<a xlink:href="lib.controllers.help_controller.html" xlink:title="MpmHelpController" target="_parent">
<polygon fill="none" stroke="black" points="401.5,-736 270.5,-736 270.5,-700 401.5,-700 401.5,-736"/>
<text text-anchor="middle" x="336" y="-715.2" font-family="Courier,monospace" font-size="11.00">MpmHelpController</text>
</a>
</g>
<!-- \\MpmHelpController&#45;&gt;\\MpmController -->
<g id="edge15" class="edge"><title>\\MpmHelpController&#45;&gt;\\MpmController</title>
<path fill="none" stroke="black" d="M270.427,-725.604C254.879,-729.616 239.018,-735.721 226,-745 157.688,-793.694 114.28,-887.123 95.9854,-933.495"/>
<polygon fill="none" stroke="black" points="92.6888,-932.316 92.364,-942.906 99.2219,-934.83 92.6888,-932.316"/>
</g>
<!-- \\MpmInitController -->
<g id="node15" class="node"><title>\\MpmInitController</title>
<a xlink:href="lib.controllers.init_controller.html" xlink:title="MpmInitController" target="_parent">
<polygon fill="none" stroke="black" points="401.5,-1276 270.5,-1276 270.5,-1240 401.5,-1240 401.5,-1276"/>
<text text-anchor="middle" x="336" y="-1255.2" font-family="Courier,monospace" font-size="11.00">MpmInitController</text>
</a>
</g>
<!-- \\MpmInitController&#45;&gt;\\MpmController -->
<g id="edge17" class="edge"><title>\\MpmInitController&#45;&gt;\\MpmController</title>
<path fill="none" stroke="black" d="M270.353,-1251.4C254.632,-1247.38 238.707,-1241.02 226,-1231 145.17,-1167.27 106.262,-1044.04 92.2997,-988.88"/>
<polygon fill="none" stroke="black" points="95.6825,-987.979 89.9064,-979.097 88.883,-989.642 95.6825,-987.979"/>
</g>
<!-- \\MpmLatestController -->
<g id="node16" class="node"><title>\\MpmLatestController</title>
<a xlink:href="lib.controllers.latest_controller.html" xlink:title="MpmLatestController" target="_parent">
<polygon fill="none" stroke="black" points="408.5,-1168 263.5,-1168 263.5,-1132 408.5,-1132 408.5,-1168"/>
<text text-anchor="middle" x="336" y="-1147.2" font-family="Courier,monospace" font-size="11.00">MpmLatestController</text>
</a>
</g>
<!-- \\MpmLatestController&#45;&gt;\\MpmController -->
<g id="edge19" class="edge"><title>\\MpmLatestController&#45;&gt;\\MpmController</title>
<path fill="none" stroke="black" d="M263.267,-1138.92C250.286,-1135.09 237.299,-1129.93 226,-1123 169.778,-1088.49 124.228,-1023.98 101.571,-987.644"/>
<polygon fill="none" stroke="black" points="104.516,-985.752 96.3112,-979.049 98.5452,-989.405 104.516,-985.752"/>
</g>
<!-- \\MpmListController -->
<g id="node17" class="node"><title>\\MpmListController</title>
<a xlink:href="lib.controllers.list_controller.html" xlink:title="MpmListController" target="_parent">
<polygon fill="none" stroke="black" points="401.5,-1114 270.5,-1114 270.5,-1078 401.5,-1078 401.5,-1114"/>
<text text-anchor="middle" x="336" y="-1093.2" font-family="Courier,monospace" font-size="11.00">MpmListController</text>
</a>
</g>
<!-- \\MpmListController&#45;&gt;\\MpmController -->
<g id="edge21" class="edge"><title>\\MpmListController&#45;&gt;\\MpmController</title>
<path fill="none" stroke="black" d="M270.337,-1084.66C255.359,-1080.77 239.781,-1075.66 226,-1069 181.721,-1047.61 138.04,-1010.71 111.545,-986.074"/>
<polygon fill="none" stroke="black" points="113.895,-983.478 104.218,-979.165 109.093,-988.571 113.895,-983.478"/>
</g>
<!-- \\MpmRunController -->
<g id="node18" class="node"><title>\\MpmRunController</title>
<a xlink:href="lib.controllers.run_controller.html" xlink:title="MpmRunController" target="_parent">
<polygon fill="none" stroke="black" points="398.5,-1060 273.5,-1060 273.5,-1024 398.5,-1024 398.5,-1060"/>
<text text-anchor="middle" x="336" y="-1039.2" font-family="Courier,monospace" font-size="11.00">MpmRunController</text>
</a>
</g>
<!-- \\MpmRunController&#45;&gt;\\MpmController -->
<g id="edge23" class="edge"><title>\\MpmRunController&#45;&gt;\\MpmController</title>
<path fill="none" stroke="black" d="M273.23,-1028.13C257.706,-1024.25 241.153,-1019.78 226,-1015 196.46,-1005.68 164.16,-993.374 138.036,-982.86"/>
<polygon fill="none" stroke="black" points="139.289,-979.591 128.707,-979.076 136.658,-986.078 139.289,-979.591"/>
</g>
<!-- \\MpmStatusController -->
<g id="node19" class="node"><title>\\MpmStatusController</title>
<a xlink:href="lib.controllers.status_controller.html" xlink:title="MpmStatusController" target="_parent">
<polygon fill="none" stroke="black" points="408.5,-1006 263.5,-1006 263.5,-970 408.5,-970 408.5,-1006"/>
<text text-anchor="middle" x="336" y="-985.2" font-family="Courier,monospace" font-size="11.00">MpmStatusController</text>
</a>
</g>
<!-- \\MpmStatusController&#45;&gt;\\MpmController -->
<g id="edge25" class="edge"><title>\\MpmStatusController&#45;&gt;\\MpmController</title>
<path fill="none" stroke="black" d="M263.313,-980.227C226.569,-976.242 182.29,-971.441 147.173,-967.633"/>
<polygon fill="none" stroke="black" points="147.376,-964.135 137.057,-966.536 146.622,-971.094 147.376,-964.135"/>
</g>
<!-- \\MpmUpController -->
<g id="node20" class="node"><title>\\MpmUpController</title>
<a xlink:href="lib.controllers.up_controller.html" xlink:title="MpmUpController" target="_parent">
<polygon fill="none" stroke="black" points="395,-952 277,-952 277,-916 395,-916 395,-952"/>
<text text-anchor="middle" x="336" y="-931.2" font-family="Courier,monospace" font-size="11.00">MpmUpController</text>
</a>
</g>
<!-- \\MpmUpController&#45;&gt;\\MpmController -->
<g id="edge27" class="edge"><title>\\MpmUpController&#45;&gt;\\MpmController</title>
<path fill="none" stroke="black" d="M276.935,-940.296C238.068,-944.511 186.986,-950.05 147.439,-954.338"/>
<polygon fill="none" stroke="black" points="146.953,-950.87 137.389,-955.428 147.708,-957.829 146.953,-950.87"/>
</g>
<!-- \\MpmClassUndefinedException -->
<g id="node21" class="node"><title>\\MpmClassUndefinedException</title>
<a xlink:href="lib.exceptions.class_undefined_exception.html" xlink:title="MpmClassUndefinedException" target="_parent">
<polygon fill="none" stroke="black" points="432,-520 240,-520 240,-484 432,-484 432,-520"/>
<text text-anchor="middle" x="336" y="-499.2" font-family="Courier,monospace" font-size="11.00">MpmClassUndefinedException</text>
</a>
</g>
<!-- \\Exception -->
<g id="node46" class="node"><title>\\Exception</title>
<ellipse fill="none" stroke="black" cx="85" cy="-18" rx="51.1914" ry="18"/>
<text text-anchor="middle" x="85" y="-14.3" font-family="Times,serif" font-size="14.00" fill="gray">\Exception</text>
</g>
<!-- \\MpmClassUndefinedException&#45;&gt;\\Exception -->
<g id="edge29" class="edge"><title>\\MpmClassUndefinedException&#45;&gt;\\Exception</title>
<path fill="none" stroke="black" d="M239.923,-486.369C234.816,-483.191 230.106,-479.435 226,-475 94.3522,-332.816 275.747,-195.749 154,-45 149.71,-39.6885 144.224,-35.4171 138.233,-31.9833"/>
<polygon fill="none" stroke="black" points="139.693,-28.801 129.175,-27.528 136.604,-35.0823 139.693,-28.801"/>
</g>
<!-- \\MpmDatabaseConnectionException -->
<g id="node22" class="node"><title>\\MpmDatabaseConnectionException</title>
<a xlink:href="lib.exceptions.database_connection_exception.html" xlink:title="MpmDatabaseConnectionException" target="_parent">
<polygon fill="none" stroke="black" points="445.5,-142 226.5,-142 226.5,-106 445.5,-106 445.5,-142"/>
<text text-anchor="middle" x="336" y="-121.2" font-family="Courier,monospace" font-size="11.00">MpmDatabaseConnectionException</text>
</a>
</g>
<!-- \\MpmDatabaseConnectionException&#45;&gt;\\Exception -->
<g id="edge31" class="edge"><title>\\MpmDatabaseConnectionException&#45;&gt;\\Exception</title>
<path fill="none" stroke="black" d="M294.551,-105.882C257.979,-89.6111 202.582,-65.2403 154,-45 146.078,-41.6996 137.601,-38.2606 129.414,-34.9861"/>
<polygon fill="none" stroke="black" points="130.573,-31.6802 119.987,-31.2359 127.985,-38.1845 130.573,-31.6802"/>
</g>
<!-- \\MpmMalformedQueryException -->
<g id="node23" class="node"><title>\\MpmMalformedQueryException</title>
<a xlink:href="lib.exceptions.malformed_query_exception.html" xlink:title="MpmMalformedQueryException" target="_parent">
<polygon fill="none" stroke="black" points="432,-574 240,-574 240,-538 432,-538 432,-574"/>
<text text-anchor="middle" x="336" y="-553.2" font-family="Courier,monospace" font-size="11.00">MpmMalformedQueryException</text>
</a>
</g>
<!-- \\MpmMalformedQueryException&#45;&gt;\\Exception -->
<g id="edge33" class="edge"><title>\\MpmMalformedQueryException&#45;&gt;\\Exception</title>
<path fill="none" stroke="black" d="M239.829,-540.455C234.745,-537.257 230.065,-533.472 226,-529 79.7063,-368.081 289.094,-215.43 154,-45 149.759,-39.6496 144.301,-35.3557 138.324,-31.9105"/>
<polygon fill="none" stroke="black" points="139.794,-28.733 129.278,-27.446 136.696,-35.0102 139.794,-28.733"/>
</g>
<!-- \\MpmAutoloadHelper -->
<g id="node24" class="node"><title>\\MpmAutoloadHelper</title>
<a xlink:href="lib.helpers.autoload_helper.html" xlink:title="MpmAutoloadHelper" target="_parent">
<polygon fill="none" stroke="black" points="401.5,-466 270.5,-466 270.5,-430 401.5,-430 401.5,-466"/>
<text text-anchor="middle" x="336" y="-445.2" font-family="Courier,monospace" font-size="11.00">MpmAutoloadHelper</text>
</a>
</g>
<!-- \\MpmDbHelper -->
<g id="node25" class="node"><title>\\MpmDbHelper</title>
<a xlink:href="lib.helpers.db_helper.html" xlink:title="MpmDbHelper" target="_parent">
<polygon fill="none" stroke="black" points="381.5,-412 290.5,-412 290.5,-376 381.5,-376 381.5,-412"/>
<text text-anchor="middle" x="336" y="-391.2" font-family="Courier,monospace" font-size="11.00">MpmDbHelper</text>
</a>
</g>
<!-- \\MpmListHelper -->
<g id="node26" class="node"><title>\\MpmListHelper</title>
<a xlink:href="lib.helpers.list_helper.html" xlink:title="MpmListHelper" target="_parent">
<polygon fill="none" stroke="black" points="388,-358 284,-358 284,-322 388,-322 388,-358"/>
<text text-anchor="middle" x="336" y="-337.2" font-family="Courier,monospace" font-size="11.00">MpmListHelper</text>
</a>
</g>
<!-- \\MpmMigrationHelper -->
<g id="node27" class="node"><title>\\MpmMigrationHelper</title>
<a xlink:href="lib.helpers.migration_helper.html" xlink:title="MpmMigrationHelper" target="_parent">
<polygon fill="none" stroke="black" points="405,-304 267,-304 267,-268 405,-268 405,-304"/>
<text text-anchor="middle" x="336" y="-283.2" font-family="Courier,monospace" font-size="11.00">MpmMigrationHelper</text>
</a>
</g>
<!-- \\MpmStringHelper -->
<g id="node28" class="node"><title>\\MpmStringHelper</title>
<a xlink:href="lib.helpers.string_helper.html" xlink:title="MpmStringHelper" target="_parent">
<polygon fill="none" stroke="black" points="395,-250 277,-250 277,-214 395,-214 395,-250"/>
<text text-anchor="middle" x="336" y="-229.2" font-family="Courier,monospace" font-size="11.00">MpmStringHelper</text>
</a>
</g>
<!-- \\MpmTemplateHelper -->
<g id="node29" class="node"><title>\\MpmTemplateHelper</title>
<a xlink:href="lib.helpers.template_helper.html" xlink:title="MpmTemplateHelper" target="_parent">
<polygon fill="none" stroke="black" points="401.5,-196 270.5,-196 270.5,-160 401.5,-160 401.5,-196"/>
<text text-anchor="middle" x="336" y="-175.2" font-family="Courier,monospace" font-size="11.00">MpmTemplateHelper</text>
</a>
</g>
<!-- \\Migration_2012_08_21_21_15_44 -->
<g id="node30" class="node"><title>\\Migration_2012_08_21_21_15_44</title>
<a xlink:href="migrations.2012_08_21_21_15_44.html" xlink:title="Migration_2012_08_21_21_15_44" target="_parent">
<polygon fill="none" stroke="black" points="442,-682 230,-682 230,-646 442,-646 442,-682"/>
<text text-anchor="middle" x="336" y="-661.2" font-family="Courier,monospace" font-size="11.00">Migration_2012_08_21_21_15_44</text>
</a>
</g>
<!-- \\Migration_2012_08_21_21_15_44&#45;&gt;\\MpmMysqliMigration -->
<g id="edge35" class="edge"><title>\\Migration_2012_08_21_21_15_44&#45;&gt;\\MpmMysqliMigration</title>
<path fill="none" stroke="black" d="M229.762,-664C207.748,-664 184.91,-664 164.092,-664"/>
<polygon fill="none" stroke="black" points="164.047,-660.5 154.047,-664 164.047,-667.5 164.047,-660.5"/>
</g>
</g>
</svg>
